<svg id="Слой_1" data-name="Слой 1" xmlns="http://www.w3.org/2000/svg" viewBox="0 0 864 1085"><defs><style>.cls-1{fill:#5a39ff;}.cls-2{font-size:48px;font-family:UniversC;}.cls-3,.cls-4,.cls-5{stroke:#000;}.cls-3,.cls-4{stroke-miterlimit:10;}.cls-3{stroke-width:0.5px;}.cls-4,.cls-5{fill:none;}.cls-5{stroke-linecap:round;stroke-linejoin:round;}</style></defs><path d="M718.69,146.5V370.69H494.5V146.5H718.69m.5-.5H494V371.19H719.19V146Z" transform="translate(-398.5 -50)"/><path d="M941.63,146.5V370.69H717.44V146.5H941.63m.5-.5H716.94V371.19H942.13V146Z" transform="translate(-398.5 -50)"/><path d="M1164.56,146.5V370.69H940.37V146.5h224.19m.5-.5H939.87V371.19h225.19V146Z" transform="translate(-398.5 -50)"/><path d="M718.69,369.44V593.63H494.5V369.44H718.69m.5-.5H494V594.13H719.19V368.94Z" transform="translate(-398.5 -50)"/><path d="M941.63,369.44V593.63H717.44V369.44H941.63m.5-.5H716.94V594.13H942.13V368.94Z" transform="translate(-398.5 -50)"/><path d="M1164.56,369.44V593.63H940.37V369.44h224.19m.5-.5H939.87V594.13h225.19V368.94Z" transform="translate(-398.5 -50)"/><path d="M718.69,592.37V816.56H494.5V592.37H718.69m.5-.5H494V817.06H719.19V591.87Z" transform="translate(-398.5 -50)"/><path d="M941.63,592.37V816.56H717.44V592.37H941.63m.5-.5H716.94V817.06H942.13V591.87Z" transform="translate(-398.5 -50)"/><path d="M1164.56,592.37V816.56H940.37V592.37h224.19m.5-.5H939.87V817.06h225.19V591.87Z" transform="translate(-398.5 -50)"/><path d="M718.69,815.31V1039.5H494.5V815.31H718.69m.5-.5H494V1040H719.19V814.81Z" transform="translate(-398.5 -50)"/><path d="M941.63,815.31V1039.5H717.44V815.31H941.63m.5-.5H716.94V1040H942.13V814.81Z" transform="translate(-398.5 -50)"/><path d="M1164.56,815.31V1039.5H940.37V815.31h224.19m.5-.5H939.87V1040h225.19V814.81Z" transform="translate(-398.5 -50)"/><path class="cls-1" d="M597.62,370.69a42.37,42.37,0,0,1-42.32-42.32V146.5h90.89a72.58,72.58,0,0,1,72.5,72.5V370.69Z" transform="translate(-398.5 -50)"/><path d="M646.19,147a72.08,72.08,0,0,1,72,72V370.19H597.62a41.87,41.87,0,0,1-41.82-41.82V147h90.39m0-1H554.8V328.37a42.82,42.82,0,0,0,42.82,42.82H719.19V219a73,73,0,0,0-73-73Z" transform="translate(-398.5 -50)"/><path class="cls-1" d="M717.44,370.69V275.94a30.4,30.4,0,0,1,30.36-30.36H921.41a20.24,20.24,0,0,1,20.22,20.22V370.69Z" transform="translate(-398.5 -50)"/><path d="M921.41,246.08a19.75,19.75,0,0,1,19.72,19.72V370.19H717.94V275.94a29.89,29.89,0,0,1,29.86-29.86H921.41m0-1H747.8a30.86,30.86,0,0,0-30.86,30.86v95.25H942.13V265.8a20.72,20.72,0,0,0-20.72-20.72Z" transform="translate(-398.5 -50)"/><path class="cls-1" d="M940.37,370.69V193.11A46.66,46.66,0,0,1,987,146.5h114.53V320.68a50.07,50.07,0,0,1-50,50Z" transform="translate(-398.5 -50)"/><path d="M1101,147V320.68a49.57,49.57,0,0,1-49.51,49.51H940.87V193.11A46.16,46.16,0,0,1,987,147h114m1-1H987a47.11,47.11,0,0,0-47.11,47.11V371.19H1051.5A50.51,50.51,0,0,0,1102,320.68V146Z" transform="translate(-398.5 -50)"/><path class="cls-1" d="M589.26,593.63a29.5,29.5,0,0,1-29.46-29.46V404.41a35,35,0,0,1,35-35H718.69V553.08a40.59,40.59,0,0,1-40.54,40.55Z" transform="translate(-398.5 -50)"/><path d="M718.19,369.94V553.08a40.09,40.09,0,0,1-40,40H589.26a29,29,0,0,1-29-29V404.41a34.51,34.51,0,0,1,34.47-34.47H718.19m1-1H594.77a35.47,35.47,0,0,0-35.47,35.47V564.17a30,30,0,0,0,30,30h88.89a41,41,0,0,0,41-41V368.94Z" transform="translate(-398.5 -50)"/><path class="cls-1" d="M591.4,816.56a18.1,18.1,0,0,1-18.08-18.08V612.29a19.94,19.94,0,0,1,19.91-19.92H718.69V816.56Z" transform="translate(-398.5 -50)"/><path d="M718.19,592.87V816.06H591.4a17.6,17.6,0,0,1-17.58-17.58V612.29a19.44,19.44,0,0,1,19.41-19.42h125m1-1h-126a20.41,20.41,0,0,0-20.41,20.42V798.48a18.58,18.58,0,0,0,18.58,18.58H719.19V591.87Z" transform="translate(-398.5 -50)"/><path class="cls-1" d="M582.32,1039.5V875.81a60.57,60.57,0,0,1,60.5-60.5h75.87v188.17a36.06,36.06,0,0,1-36,36Z" transform="translate(-398.5 -50)"/><path d="M718.19,815.81v187.67A35.56,35.56,0,0,1,682.67,1039H582.82V875.81a60.07,60.07,0,0,1,60-60h75.37m1-1H642.82a61,61,0,0,0-61,61V1040H682.67a36.52,36.52,0,0,0,36.52-36.52V814.81Z" transform="translate(-398.5 -50)"/><path class="cls-1" d="M717.44,593.63V508.92a13.39,13.39,0,0,1,13.37-13.38H898.13a43.56,43.56,0,0,1,43.5,43.5v54.59Z" transform="translate(-398.5 -50)"/><path d="M898.13,496a43,43,0,0,1,43,43v54.09H717.94V508.92A12.89,12.89,0,0,1,730.81,496H898.13m0-1H730.81a13.87,13.87,0,0,0-13.87,13.88v85.21H942.13V539a44,44,0,0,0-44-44Z" transform="translate(-398.5 -50)"/><path class="cls-1" d="M717.44,816.56V641.92H941.63v97.14a77.59,77.59,0,0,1-77.5,77.5Z" transform="translate(-398.5 -50)"/><path d="M941.13,642.42v96.64a77.09,77.09,0,0,1-77,77H717.94V642.42H941.13m1-1H716.94V817.06H864.13a78,78,0,0,0,78-78V641.42Z" transform="translate(-398.5 -50)"/><path class="cls-1" d="M717.44,1039.5V896.38H941.63V976a63.58,63.58,0,0,1-63.5,63.5Z" transform="translate(-398.5 -50)"/><path d="M941.13,896.88V976a63.08,63.08,0,0,1-63,63H717.94V896.88H941.13m1-1H716.94V1040H878.13a64,64,0,0,0,64-64V895.88Z" transform="translate(-398.5 -50)"/><path class="cls-1" d="M963.87,593.63a23.54,23.54,0,0,1-23.5-23.5V369.44h29.55a23.52,23.52,0,0,1,23.5,23.5V593.63Z" transform="translate(-398.5 -50)"/><path d="M969.92,369.94a23,23,0,0,1,23,23V593.13h-29a23,23,0,0,1-23-23V369.94h29m0-1h-30V570.13a24,24,0,0,0,24,24h30V392.94a24,24,0,0,0-24-24Z" transform="translate(-398.5 -50)"/><path class="cls-1" d="M938.12,816.56V592.37h115.67A52.28,52.28,0,0,1,1106,644.6V769.79a46.82,46.82,0,0,1-46.77,46.77Z" transform="translate(-398.5 -50)"/><path d="M1053.79,592.87a51.79,51.79,0,0,1,51.72,51.73V769.79a46.33,46.33,0,0,1-46.27,46.27H938.62V592.87h115.17m0-1H937.62V817.06h121.62a47.27,47.27,0,0,0,47.27-47.27V644.6a52.72,52.72,0,0,0-52.72-52.73Z" transform="translate(-398.5 -50)"/><path class="cls-1" d="M938.12,1039.5V815.31h108.93A32,32,0,0,1,1079,847.25V1039.5Z" transform="translate(-398.5 -50)"/><path d="M1047.06,815.81a31.47,31.47,0,0,1,31.43,31.44V1039H938.62V815.81h108.44m0-1H937.62V1040h141.87V847.25a32.43,32.43,0,0,0-32.43-32.44Z" transform="translate(-398.5 -50)"/><text class="cls-2" transform="translate(113.5 59.91)">Jan</text><text class="cls-2" transform="translate(333.5 57.91)">Feb</text><text class="cls-2" transform="translate(559.5 59.91)">Mar</text><rect class="cls-3" x="96.5" y="84.5" width="670" height="12"/><rect class="cls-4" x="84" y="0.5" width="695" height="84"/><rect class="cls-4" x="84" y="1000.5" width="695" height="84"/><path d="M453,1020l-8.54-8.69a40.45,40.45,0,0,0-7.06-6,7.82,7.82,0,0,0-4.56-1.54c-3.41,0-5.42,2-5.42,5.33,0,3.79,2.2,5.33,5.8,5.43v5a9.37,9.37,0,0,1-4.7-1.06c-3.17-1.58-5-4.95-5-9.22,0-6.38,3.69-10.27,9.69-10.27,3.89,0,6.77,2.45,9.56,4.85,1.77,1.53,3.65,3.31,5.28,5l5.52,5.81v-15.8h3.79V1020Z" transform="translate(-398.5 -50)"/><path d="M423.52,982.56c0-9.5,9.6-11.13,17.19-11.13,7.29,0,17.37,2,17.37,11.23s-9.69,11-16.89,11C429.62,993.7,423.52,989.86,423.52,982.56Zm30.58.05c0-4.37-4.37-6.53-13.25-6.53-9.27,0-13.49,2-13.49,6.43,0,6.34,9.22,6.58,13.63,6.58S454.1,988.71,454.1,982.61Z" transform="translate(-398.5 -50)"/><path d="M453,966.58l-8.54-8.69a40.45,40.45,0,0,0-7.06-6,7.87,7.87,0,0,0-4.56-1.53c-3.41,0-5.42,2-5.42,5.32,0,3.8,2.2,5.33,5.8,5.43v5a9.37,9.37,0,0,1-4.7-1.06c-3.17-1.58-5-4.94-5-9.21,0-6.39,3.69-10.28,9.69-10.28,3.89,0,6.77,2.45,9.56,4.85,1.77,1.54,3.65,3.31,5.28,5l5.52,5.81V945.46h3.79v21.12Z" transform="translate(-398.5 -50)"/><path d="M423.52,929.19c0-9.51,9.6-11.14,17.19-11.14,7.29,0,17.37,2,17.37,11.23s-9.69,11-16.89,11C429.62,940.32,423.52,936.48,423.52,929.19Zm30.58,0c0-4.36-4.37-6.52-13.25-6.52-9.27,0-13.49,2-13.49,6.43,0,6.34,9.22,6.57,13.63,6.57S454.1,935.33,454.1,929.23Z" transform="translate(-398.5 -50)"/><rect class="cls-4" x="-17.75" y="551.25" width="917.5" height="84" transform="translate(-550.75 984.25) rotate(-90)"/><path d="M1220.52,226.83a6.81,6.81,0,0,0-3.26.62c-2.36,1-3.6,3.65-3.6,7.78,0,3.89,1.63,8.06,6.14,8.06s5-4.61,5.86-8c1.34-5.52,1.58-6.19,2.25-7.82a8,8,0,0,1,7.68-5.19c6.05,0,10.09,5.28,10.09,13.2,0,4-1.11,8.65-4.85,10.76a8.11,8.11,0,0,1-4.47,1.1v-5c3.51-.19,5.28-2.64,5.28-7.3s-2.11-7.68-5.61-7.68-4.42,3.22-5.14,6.24c-.05.29-.43,1.68-1.06,4.13-1.34,5.43-2.78,10.51-9.55,10.51-6.53,0-10.7-5.37-10.7-13.68,0-4.56,1.29-9.89,5.85-11.9a10.71,10.71,0,0,1,5.09-.87Z" transform="translate(-398.5 -50)"/><path d="M1245,255.58v4.51H1210.3v-4.51Z" transform="translate(-398.5 -50)"/><path d="M1221.53,271.37h-.77c-4.89,0-7.92,2.64-7.92,6.91a5.27,5.27,0,0,0,5,5.67v4.51a8.5,8.5,0,0,1-3.41-.91c-3.07-1.59-4.84-5-4.84-9.46,0-7.34,4.32-11.18,12.57-11.18,7.54,0,12.87,3.45,12.87,11.47,0,6.72-4.13,10.37-11.71,10.37-.44,0-1.06,0-1.78-.05Zm3.6,12.72c4.22,0,6.67-2.16,6.67-5.95s-2.73-6.48-7.1-6.58v12.53Z" transform="translate(-398.5 -50)"/><path d="M1221.53,298.06h-.77c-4.89,0-7.92,2.64-7.92,6.91a5.26,5.26,0,0,0,5,5.66v4.52a8.66,8.66,0,0,1-3.41-.91c-3.07-1.59-4.84-5.05-4.84-9.46,0-7.35,4.32-11.19,12.57-11.19,7.54,0,12.87,3.46,12.87,11.48,0,6.72-4.13,10.36-11.71,10.36-.44,0-1.06,0-1.78,0Zm3.6,12.72c4.22,0,6.67-2.16,6.67-5.95s-2.73-6.48-7.1-6.58v12.53Z" transform="translate(-398.5 -50)"/><path d="M1230.46,322c1.29,0,2.64,0,3.93-.14v4.56l-3.88.09a9.17,9.17,0,0,1,4.37,8.21c0,6.24-4.76,10.13-12.49,10.13-7.92,0-12.91-4.22-12.91-11,0-3.27,1.3-5.95,3.6-7.39h-12V322Zm-17.67,11.09c0,4.51,3.51,7.06,9.89,7.06,5.81,0,8.83-2.26,8.83-6.63,0-4.7-3.31-7.2-9.64-7.2C1217.21,326.28,1212.79,327.63,1212.79,333.05Z" transform="translate(-398.5 -50)"/><rect class="cls-4" x="761.25" y="551.25" width="917.5" height="84" transform="translate(228.25 1763.25) rotate(-90)"/><rect class="cls-3" x="494.5" y="1039.5" width="670.5" height="12" transform="translate(1261 2041) rotate(180)"/><rect class="cls-3" x="30.13" y="586.86" width="916.75" height="12" transform="translate(-502.86 1031.36) rotate(-90)"/><rect class="cls-3" x="713.13" y="586.86" width="916.75" height="12" transform="translate(1365.86 -628.64) rotate(90)"/><path class="cls-5" d="M715.5,1096.86H550.64s28.79.64,39.5,12.64" transform="translate(-398.5 -50)"/><path class="cls-5" d="M715.5,1096.5l-165,.14S579.28,1096,590,1084" transform="translate(-398.5 -50)"/><path class="cls-5" d="M942.49,1102.64h164.86s-28.78-.64-39.5-12.64" transform="translate(-398.5 -50)"/><path class="cls-5" d="M942.49,1103l165-.14s-28.79.64-39.5,12.64" transform="translate(-398.5 -50)"/><path class="cls-5" d="M836.89,1119.5v-57.11s-.64,28.79-12.64,39.5" transform="translate(-398.5 -50)"/><path class="cls-5" d="M837.25,1119.5l-.15-57.25s.65,28.78,12.65,39.5" transform="translate(-398.5 -50)"/></svg>