<?xml version="1.0" encoding="utf-8"?>
<!-- Generator: Adobe Illustrator 25.2.1, SVG Export Plug-In . SVG Version: 6.00 Build 0)  -->
<svg version="1.1" id="Слой_1" xmlns="http://www.w3.org/2000/svg" xmlns:xlink="http://www.w3.org/1999/xlink" x="0px" y="0px"
	 viewBox="0 0 1920 1177" style="enable-background:new 0 0 1920 1177;" xml:space="preserve">
<style type="text/css">
	.st0{display:none;}
	.st1{display:inline;}
	.st2{fill:#FFFFFF;}
	.st3{fill:#5A39FF;}
	.st4{display:inline;fill:#5A39FF;}
	.st5{stroke:#000000;stroke-width:0.5;stroke-miterlimit:10;}
	.st6{fill:none;stroke:#000000;stroke-miterlimit:10;}
	.st7{fill:none;stroke:#000000;stroke-linecap:round;stroke-linejoin:round;stroke-miterlimit:10;}
</style>
<g class="st0">
	<g class="st1">
		<rect x="198.5" y="202.5" class="st2" width="186" height="186"/>
		<path d="M384,203v185H199V203H384 M385,202H198v187h187V202L385,202z"/>
	</g>
	<g class="st1">
		<rect x="384.5" y="202.5" class="st2" width="186" height="186"/>
		<path d="M570,203v185H385V203H570 M571,202H384v187h187V202L571,202z"/>
	</g>
	<g class="st1">
		<rect x="570.5" y="202.5" class="st2" width="186" height="186"/>
		<path d="M756,203v185H571V203H756 M757,202H570v187h187V202L757,202z"/>
	</g>
	<g class="st1">
		<rect x="198.5" y="388.5" class="st2" width="186" height="186"/>
		<path d="M384,389v185H199V389H384 M385,388H198v187h187V388L385,388z"/>
	</g>
	<g class="st1">
		<rect x="384.5" y="388.5" class="st2" width="186" height="186"/>
		<path d="M570,389v185H385V389H570 M571,388H384v187h187V388L571,388z"/>
	</g>
	<g class="st1">
		<rect x="570.5" y="388.5" class="st2" width="186" height="186"/>
		<path d="M756,389v185H571V389H756 M757,388H570v187h187V388L757,388z"/>
	</g>
	<g class="st1">
		<rect x="198.5" y="574.5" class="st2" width="186" height="186"/>
		<path d="M384,575v185H199V575H384 M385,574H198v187h187V574L385,574z"/>
	</g>
	<g class="st1">
		<rect x="384.5" y="574.5" class="st2" width="186" height="186"/>
		<path d="M570,575v185H385V575H570 M571,574H384v187h187V574L571,574z"/>
	</g>
	<g class="st1">
		<rect x="570.5" y="574.5" class="st2" width="186" height="186"/>
		<path d="M756,575v185H571V575H756 M757,574H570v187h187V574L757,574z"/>
	</g>
	<g class="st1">
		<rect x="198.5" y="760.5" class="st2" width="186" height="186"/>
		<path d="M384,761v185H199V761H384 M385,760H198v187h187V760L385,760z"/>
	</g>
	<g class="st1">
		<rect x="384.5" y="760.5" class="st2" width="186" height="186"/>
		<path d="M570,761v185H385V761H570 M571,760H384v187h187V760L571,760z"/>
	</g>
	<g class="st1">
		<rect x="570.5" y="760.5" class="st2" width="186" height="186"/>
		<path d="M756,761v185H571V761H756 M757,760H570v187h187V760L757,760z"/>
	</g>
</g>
<g>
	<g>
		<path d="M718.69,146.5v224.19H494.5V146.5H718.69 M719.19,146H494v225.19h225.19V146L719.19,146z"/>
	</g>
	<g>
		<path d="M941.63,146.5v224.19H717.44V146.5H941.63 M942.13,146H716.94v225.19h225.19V146L942.13,146z"/>
	</g>
	<g>
		<path d="M1164.56,146.5v224.19H940.37V146.5H1164.56 M1165.06,146H939.87v225.19h225.19V146L1165.06,146z"/>
	</g>
	<g>
		<path d="M718.69,369.44v224.19H494.5V369.44H718.69 M719.19,368.94H494v225.19h225.19V368.94L719.19,368.94z"/>
	</g>
	<g>
		<path d="M941.63,369.44v224.19H717.44V369.44H941.63 M942.13,368.94H716.94v225.19h225.19V368.94L942.13,368.94z"/>
	</g>
	<g>
		<path d="M1164.56,369.44v224.19H940.37V369.44H1164.56 M1165.06,368.94H939.87v225.19h225.19V368.94L1165.06,368.94z"/>
	</g>
	<g>
		<path d="M718.69,592.37v224.19H494.5V592.37H718.69 M719.19,591.87H494v225.19h225.19V591.87L719.19,591.87z"/>
	</g>
	<g>
		<path d="M941.63,592.37v224.19H717.44V592.37H941.63 M942.13,591.87H716.94v225.19h225.19V591.87L942.13,591.87z"/>
	</g>
	<g>
		<path d="M1164.56,592.37v224.19H940.37V592.37H1164.56 M1165.06,591.87H939.87v225.19h225.19V591.87L1165.06,591.87z"/>
	</g>
	<g>
		<path d="M718.69,815.31v224.19H494.5V815.31H718.69 M719.19,814.81H494V1040h225.19V814.81L719.19,814.81z"/>
	</g>
	<g>
		<path d="M941.63,815.31v224.19H717.44V815.31H941.63 M942.13,814.81H716.94V1040h225.19V814.81L942.13,814.81z"/>
	</g>
	<g>
		<path d="M1164.56,815.31v224.19H940.37V815.31H1164.56 M1165.06,814.81H939.87V1040h225.19V814.81L1165.06,814.81z"/>
	</g>
</g>
<g>
	<path class="st3" d="M597.62,370.69c-23.33,0-42.32-18.98-42.32-42.32V146.5h90.89c39.98,0,72.5,32.52,72.5,72.5v151.69H597.62z"/>
	<path d="M646.19,147c39.7,0,72,32.3,72,72v151.19H597.62c-23.06,0-41.82-18.76-41.82-41.82V147H646.19 M646.19,146H554.8v182.37
		c0,23.65,19.17,42.82,42.82,42.82h121.57V219C719.19,178.68,686.51,146,646.19,146L646.19,146z"/>
</g>
<g>
	<path class="st3" d="M717.44,370.69v-94.74c0-16.74,13.62-30.36,30.36-30.36h173.61c11.15,0,20.21,9.07,20.21,20.21v104.89H717.44z
		"/>
	<path d="M921.41,246.08c10.87,0,19.71,8.84,19.71,19.71v104.39H717.94v-94.24c0-16.47,13.4-29.86,29.86-29.86H921.41
		 M921.41,245.08H747.8c-17.04,0-30.86,13.82-30.86,30.86v95.24h225.19V265.8C942.13,254.36,932.85,245.08,921.41,245.08
		L921.41,245.08z"/>
</g>
<g>
	<path class="st3" d="M940.37,370.69V193.11c0-25.7,20.91-46.61,46.61-46.61h114.53v174.18c0,27.58-22.43,50.01-50.01,50.01H940.37z
		"/>
	<path d="M1101.01,147v173.68c0,27.3-22.21,49.51-49.51,49.51H940.87V193.11c0-25.42,20.68-46.11,46.11-46.11H1101.01 M1102.01,146
		H986.98c-26.02,0-47.11,21.09-47.11,47.11v178.08h111.63c27.9,0,50.51-22.61,50.51-50.51V146L1102.01,146z"/>
</g>
<g>
	<path class="st3" d="M589.26,593.63c-16.24,0-29.46-13.21-29.46-29.46V404.41c0-19.28,15.69-34.97,34.97-34.97h123.92v183.65
		c0,22.35-18.19,40.54-40.54,40.54H589.26z"/>
	<path d="M718.19,369.94v183.15c0,22.08-17.96,40.04-40.04,40.04h-88.88c-15.97,0-28.96-12.99-28.96-28.96V404.41
		c0-19.01,15.46-34.47,34.47-34.47H718.19 M719.19,368.94H594.77c-19.59,0-35.47,15.88-35.47,35.47v159.76
		c0,16.55,13.41,29.96,29.96,29.96h88.88c22.67,0,41.04-18.38,41.04-41.04V368.94L719.19,368.94z"/>
</g>
<g>
	<path class="st3" d="M591.4,816.56c-9.97,0-18.09-8.11-18.09-18.08V612.29c0-10.98,8.93-19.92,19.92-19.92h125.46v224.19H591.4z"/>
	<path d="M718.19,592.87v223.19H591.4c-9.7,0-17.59-7.89-17.59-17.59V612.29c0-10.71,8.71-19.41,19.41-19.41H718.19 M719.19,591.87
		H593.23c-11.27,0-20.41,9.14-20.41,20.41v186.19c0,10.26,8.32,18.59,18.59,18.59h127.79V591.87L719.19,591.87z"/>
</g>
<g>
	<path class="st3" d="M582.32,1039.5V875.81c0-33.36,27.14-60.5,60.5-60.5h75.87v188.17c0,19.86-16.16,36.02-36.02,36.02H582.32z"/>
	<path d="M718.19,815.81v187.67c0,19.59-15.93,35.52-35.52,35.52h-99.84V875.81c0-33.08,26.92-60,60-60H718.19 M719.19,814.81
		h-76.37c-33.69,0-61,27.31-61,61V1040h100.84c20.17,0,36.52-16.35,36.52-36.52V814.81L719.19,814.81z"/>
</g>
<g>
	<path class="st3" d="M717.44,593.63v-84.71c0-7.37,6-13.37,13.37-13.37h167.32c23.99,0,43.5,19.51,43.5,43.5v54.58H717.44z"/>
	<path d="M898.13,496.04c23.71,0,43,19.29,43,43v54.08H717.94v-84.21c0-7.1,5.77-12.87,12.87-12.87H898.13 M898.13,495.04H730.81
		c-7.66,0-13.87,6.21-13.87,13.87v85.21h225.19v-55.08C942.13,514.74,922.43,495.04,898.13,495.04L898.13,495.04z"/>
</g>
<g>
	<path class="st3" d="M717.44,816.56V641.92h224.19v97.15c0,42.73-34.77,77.5-77.5,77.5H717.44z"/>
	<path d="M941.13,642.42v96.65c0,42.46-34.54,77-77,77H717.94V642.42H941.13 M942.13,641.42H716.94v175.65h147.19
		c43.08,0,78-34.92,78-78V641.42L942.13,641.42z"/>
</g>
<g>
	<path class="st3" d="M717.44,1039.5V896.38h224.19V976c0,35.01-28.49,63.5-63.5,63.5H717.44z"/>
	<path d="M941.13,896.88V976c0,34.74-28.26,63-63,63H717.94V896.88H941.13 M942.13,895.88H716.94V1040h161.19
		c35.35,0,64-28.65,64-64V895.88L942.13,895.88z"/>
</g>
<g>
	<path class="st3" d="M963.87,593.63c-12.96,0-23.5-10.54-23.5-23.5V369.44h29.54c12.96,0,23.5,10.54,23.5,23.5v200.69H963.87z"/>
	<path d="M969.92,369.94c12.68,0,23,10.32,23,23v200.19h-29.05c-12.68,0-23-10.32-23-23V369.94H969.92 M969.92,368.94h-30.05v201.19
		c0,13.25,10.75,24,24,24h30.05V392.94C993.92,379.68,983.17,368.94,969.92,368.94L969.92,368.94z"/>
</g>
<g>
	<path class="st3" d="M938.12,816.56V592.37h115.67c28.8,0,52.22,23.43,52.22,52.22v125.19c0,25.79-20.98,46.78-46.78,46.78H938.12z
		"/>
	<path d="M1053.79,592.87c28.52,0,51.72,23.2,51.72,51.72v125.19c0,25.52-20.76,46.28-46.28,46.28H938.62V592.87H1053.79
		 M1053.79,591.87H937.62v225.19h121.62c26.11,0,47.28-21.17,47.28-47.28V644.6C1106.51,615.48,1082.91,591.87,1053.79,591.87
		L1053.79,591.87z"/>
</g>
<g>
	<path class="st3" d="M938.12,1039.5V815.31h108.93c17.61,0,31.94,14.33,31.94,31.94v192.25H938.12z"/>
	<path d="M1047.06,815.81c17.33,0,31.44,14.1,31.44,31.44V1039H938.62V815.81H1047.06 M1047.06,814.81H937.62V1040h141.87V847.25
		C1079.49,829.33,1064.97,814.81,1047.06,814.81L1047.06,814.81z"/>
</g>
<g class="st0">
	<g class="st1">
		<path d="M1056.19,145v223.19H833V145H1056.19 M1057.19,144H832v225.19h225.19V144L1057.19,144z"/>
	</g>
	<g class="st1">
		<path d="M1279.13,145v223.19h-223.19V145H1279.13 M1280.13,144h-225.19v225.19h225.19V144L1280.13,144z"/>
	</g>
	<g class="st1">
		<path d="M1502.06,145v223.19h-223.19V145H1502.06 M1503.06,144h-225.19v225.19h225.19V144L1503.06,144z"/>
	</g>
	<g class="st1">
		<path d="M1056.19,367.94v223.19H833V367.94H1056.19 M1057.19,366.94H832v225.19h225.19V366.94L1057.19,366.94z"/>
	</g>
	<g class="st1">
		<path d="M1279.13,367.94v223.19h-223.19V367.94H1279.13 M1280.13,366.94h-225.19v225.19h225.19V366.94L1280.13,366.94z"/>
	</g>
	<g class="st1">
		<path d="M1502.06,367.94v223.19h-223.19V367.94H1502.06 M1503.06,366.94h-225.19v225.19h225.19V366.94L1503.06,366.94z"/>
	</g>
	<g class="st1">
		<path d="M1056.19,590.87v223.19H833V590.87H1056.19 M1057.19,589.87H832v225.19h225.19V589.87L1057.19,589.87z"/>
	</g>
	<g class="st1">
		<path d="M1279.13,590.87v223.19h-223.19V590.87H1279.13 M1280.13,589.87h-225.19v225.19h225.19V589.87L1280.13,589.87z"/>
	</g>
	<g class="st1">
		<path d="M1502.06,590.87v223.19h-223.19V590.87H1502.06 M1503.06,589.87h-225.19v225.19h225.19V589.87L1503.06,589.87z"/>
	</g>
	<g class="st1">
		<path d="M1056.19,813.81V1037H833V813.81H1056.19 M1057.19,812.81H832V1038h225.19V812.81L1057.19,812.81z"/>
	</g>
	<g class="st1">
		<path d="M1279.13,813.81V1037h-223.19V813.81H1279.13 M1280.13,812.81h-225.19V1038h225.19V812.81L1280.13,812.81z"/>
	</g>
	<g class="st1">
		<path d="M1502.06,813.81V1037h-223.19V813.81H1502.06 M1503.06,812.81h-225.19V1038h225.19V812.81L1503.06,812.81z"/>
	</g>
</g>
<g class="st0">
	<path class="st4" d="M1276.12,1037.5v-42.54l-0.96,2.43c-9.66,24.36-32.83,40.11-59.03,40.11h-160.69v-26.17l-0.97,2.63
		c-5.2,14.08-18.78,23.55-33.8,23.55H920.32V873.81c0-27.05,18.19-51.01,44.22-58.27l3.52-0.98H929.4
		c-9.97,0-18.09-8.11-18.09-18.08V610.29c0-7.72,4.54-14.81,11.56-18.06l1.5-0.7l-1.64-0.25c-14.22-2.19-24.94-14.7-24.94-29.11
		V402.41c0-16.43,11.18-30.45,27.19-34.09l2.01-0.46l-1.99-0.52c-18.67-4.82-31.7-21.67-31.7-40.98V144.5h90.89
		c39.98,0,72.5,32.52,72.5,72.5v47.94l0.96-2.38c4.67-11.53,15.71-18.98,28.15-18.98h173.61c7.64,0,14.54,4.25,18.02,11.08
		l0.95,1.86v-65.42c0-25.7,20.91-46.61,46.61-46.61h114.53v174.18c0,27.58-22.43,50.01-50.01,50.01h-73.68l2.04,0.95
		c8.24,3.85,13.56,12.21,13.56,21.29v199.44h60.37c28.8,0,52.22,23.43,52.22,52.22v125.19c0,25.79-20.98,46.78-46.78,46.78h-2.95
		l2.45,0.96c12.3,4.84,20.25,16.51,20.25,29.72v192.25H1276.12z M1056.69,894.38h219.43V760.31l-0.97,2.73
		c-10.96,30.82-40.31,51.53-73.03,51.53h-145.44V894.38z M1056.69,639.92h219.43v-48.29h-219.43V639.92z M1279.63,590.37h14.35
		l-2.04-0.95c-4.99-2.33-9.02-6.37-11.36-11.36l-0.95-2.04V590.37z M1054.46,564.33c-4.03,11.67-13.41,21.04-25.08,25.07l-2.81,0.97
		h28.86v-28.86L1054.46,564.33z M1236.13,493.54c18.77,0,35.35,11.96,41.27,29.76l0.97,2.93V368.69h-221.68v132.35l0.92-1.41
		c2.48-3.81,6.67-6.08,11.2-6.08H1236.13z"/>
	<path class="st1" d="M1439.01,145v173.68c0,27.3-22.21,49.51-49.51,49.51h-71.43h-4.5l4.08,1.91c8.06,3.77,13.27,11.95,13.27,20.84
		v198.94v1h1h59.87c28.52,0,51.72,23.2,51.72,51.72v125.19c0,25.52-20.76,46.28-46.28,46.28h-0.31h-5.27l4.9,1.93
		c12.11,4.77,19.93,16.25,19.93,29.25V1037h-139.87v-39.42v-5.23l-1.93,4.86c-4.6,11.6-12.48,21.51-22.78,28.63
		c-10.54,7.3-22.92,11.16-35.79,11.16h-160.19v-22.87v-5.6l-1.94,5.25c-5.13,13.89-18.52,23.22-33.33,23.22h-99.84V873.81
		c0-26.82,18.03-50.59,43.86-57.78l7.04-1.96h-7.31H929.4c-9.7,0-17.59-7.89-17.59-17.58V610.29c0-7.52,4.42-14.43,11.27-17.61
		l3-1.39l-3.27-0.5c-6.76-1.04-12.96-4.48-17.46-9.68c-4.55-5.25-7.05-11.98-7.05-18.94V402.41c0-7.86,2.71-15.54,7.64-21.64
		c4.86-6.01,11.66-10.26,19.15-11.96l4.02-0.91l-3.99-1.03c-18.45-4.76-31.33-21.42-31.33-40.49V145h90.39c39.7,0,72,32.3,72,72
		v45.37v5.13l1.93-4.76c4.59-11.34,15.46-18.66,27.68-18.66h173.61c7.45,0,14.18,4.14,17.57,10.81l1.89,3.72v-4.18v-63.33
		c0-25.42,20.68-46.11,46.11-46.11H1439.01 M1056.19,502.72l1.84-2.82c2.39-3.67,6.42-5.86,10.78-5.86h167.32
		c18.55,0,34.95,11.82,40.8,29.42l1.95,5.86v-6.17V369.19v-1h-1h-220.69h-1v1v130.16V502.72 M1023.6,590.87h5.96h25.38h1v-1v-25.38
		v-5.96l-1.95,5.63c-3.98,11.52-13.24,20.78-24.77,24.77L1023.6,590.87 M1279.13,590.87h1h11.6h4.5l-4.08-1.91
		c-4.88-2.28-8.83-6.23-11.11-11.11l-1.91-4.08v4.5v11.6V590.87 M1056.19,640.42h1h218.43h1v-1v-47.29v-1h-1h-218.43h-1v1v47.29
		V640.42 M1056.19,894.88h1h218.43h1v-1v-78.82v-2.25V763.2v-5.79l-1.94,5.46c-10.89,30.62-40.05,51.19-72.55,51.19h-144.94h-1v1
		v78.82V894.88 M1440.01,144h-115.03c-26.02,0-47.11,21.09-47.11,47.11v63.33c-3.42-6.73-10.39-11.35-18.46-11.35H1085.8
		c-12.95,0-24.03,7.98-28.61,19.29V217c0-40.32-32.68-73-73-73H892.8v182.37c0,19.94,13.63,36.69,32.08,41.46
		c-15.79,3.59-27.57,17.7-27.57,34.58v159.76c0,14.98,11,27.4,25.36,29.61c-6.99,3.24-11.85,10.3-11.85,18.51v186.19
		c0,10.26,8.32,18.58,18.59,18.58h35.01c-25.71,7.17-44.59,30.75-44.59,58.75V1038h100.84c15.72,0,29.12-9.94,34.27-23.87V1038
		h161.19c27.02,0,50.11-16.75,59.5-40.42V1038h141.87V845.25c0-13.72-8.53-25.44-20.56-30.18h0.31c26.11,0,47.28-21.17,47.28-47.28
		V642.6c0-29.12-23.61-52.72-52.72-52.72h-59.87V390.94c0-9.63-5.67-17.92-13.85-21.75h71.43c27.9,0,50.51-22.61,50.51-50.51V144
		L1440.01,144z M1057.19,499.35V369.19h220.69v153.96c-5.82-17.49-22.3-30.11-41.75-30.11h-167.32
		C1063.94,493.04,1059.66,495.56,1057.19,499.35L1057.19,499.35z M1029.55,589.87c11.88-4.11,21.28-13.51,25.38-25.38v25.38H1029.55
		L1029.55,589.87z M1280.13,589.87v-11.6c2.38,5.1,6.5,9.21,11.6,11.6H1280.13L1280.13,589.87z M1057.19,639.42v-47.29h218.43v47.29
		H1057.19L1057.19,639.42z M1057.19,893.88v-78.82h144.94c33.91,0,62.75-21.64,73.5-51.86v49.61v2.25v78.82H1057.19L1057.19,893.88z
		"/>
</g>
<g>
	<path d="M518.1,100.69c0.05,1.78,0.05,2.02,0.34,2.93c0.53,1.78,2.5,2.98,4.9,2.98c2.4,0,4.51-1.2,5.23-3.55
		c0.29-0.96,0.38-1.73,0.38-3.55V75.25h4.8v25.54c0,5.81-4.37,9.84-10.75,9.84c-3.5,0-7.54-1.54-9.02-4.94
		c-0.72-1.63-0.91-2.5-0.96-4.99H518.1z"/>
	<path d="M557.6,109.96c-0.34-0.82-0.43-2.16-0.43-3.02v-0.58c-1.63,2.98-4.03,4.37-7.49,4.37c-5.09,0-8.45-2.83-8.45-7.1
		c0-2.3,0.91-4.37,2.64-5.9c2.11-1.87,5.18-2.74,9.94-2.74c0.96,0,1.49-0.1,2.88,0.1l0.38,0.05v-1.06c0-2.54-0.19-3.41-0.86-4.27
		c-0.67-0.96-2.35-1.58-4.18-1.58c-2.83,0-4.66,1.1-4.85,4.08h-4.51c0.14-1.68,0.29-2.26,0.86-3.36c1.2-2.4,4.32-3.79,8.54-3.79
		c2.93,0,6.96,0.82,8.59,3.55c0.72,1.25,0.82,2.3,0.82,3.7l-0.19,11.52c-0.05,2.02,0.14,4.03,0.38,6.05H557.6z M556.74,98.2
		c-0.82-0.1-1.49-0.1-2.26-0.1c-1.3,0-2.4,0.1-3.6,0.29c-3.17,0.48-5.09,2.21-5.09,4.61c0,2.54,2.02,4.18,4.99,4.18
		c2.45,0,4.8-1.25,5.66-3.6c0.43-1.1,0.48-2.06,0.58-4.08l0.05-1.25L556.74,98.2z"/>
	<path d="M569.74,88.6c0-0.91-0.05-1.87-0.05-2.78h4.51l0.05,3.89c1.54-2.88,4.08-4.37,7.73-4.37c2.5,0,4.75,0.82,6.43,2.26
		c1.58,1.39,2.3,3.26,2.3,5.95v16.37h-4.61V94.6c0-2.02-0.34-3.07-1.3-4.13c-0.96-1.01-2.59-1.63-4.27-1.63
		c-3.79,0-6.29,2.88-6.29,7.2v13.87h-4.51V88.6z"/>
</g>
<g>
	<path d="M736.56,73.25h20.64v4.08h-15.75v10.8h14.83v4.03h-14.83v15.75h-4.9V73.25z"/>
	<path d="M765.55,96.68v0.77c0,4.9,2.64,7.92,6.91,7.92c3.22,0,5.23-1.78,5.66-4.99h4.51c-0.19,1.68-0.38,2.35-0.91,3.41
		c-1.58,3.07-5.04,4.85-9.46,4.85c-7.34,0-11.18-4.32-11.18-12.58c0-7.54,3.46-12.87,11.47-12.87c6.72,0,10.37,4.13,10.37,11.71
		c0,0.43,0,1.06-0.05,1.78H765.55z M778.27,93.08c0-4.22-2.16-6.67-5.95-6.67c-3.94,0-6.48,2.74-6.58,7.1h12.53V93.08z"/>
	<path d="M794.11,87.32c1.63-2.83,4.13-4.13,7.87-4.13c7.54,0,10.46,5.42,10.46,12.29c0,8.02-3.98,12.77-10.75,12.77
		c-3.26,0-5.95-1.25-7.73-3.98l-0.1,3.65h-4.37c0-1.44,0.1-2.88,0.1-4.32V73.25h4.51V87.32z M800.93,86.26
		c-4.46,0-6.91,3.41-6.91,9.65c0,5.86,2.35,9.07,6.72,9.07c4.32,0,6.96-3.55,6.96-9.36C807.7,89.72,805.2,86.26,800.93,86.26z"/>
</g>
<g>
	<path d="M962.32,75.25h8.5l9.79,28.56l10.03-28.56h7.92v34.66h-4.7v-31.2l-11.38,31.2h-4.56L966.98,78.9v31.01h-4.66V75.25z"/>
	<path d="M1022.22,109.96c-0.34-0.82-0.43-2.16-0.43-3.02v-0.58c-1.63,2.98-4.03,4.37-7.49,4.37c-5.09,0-8.45-2.83-8.45-7.1
		c0-2.3,0.91-4.37,2.64-5.9c2.11-1.87,5.18-2.74,9.94-2.74c0.96,0,1.49-0.1,2.88,0.1l0.38,0.05v-1.06c0-2.54-0.19-3.41-0.86-4.27
		c-0.67-0.96-2.35-1.58-4.18-1.58c-2.83,0-4.66,1.1-4.85,4.08h-4.51c0.14-1.68,0.29-2.26,0.86-3.36c1.2-2.4,4.32-3.79,8.54-3.79
		c2.93,0,6.96,0.82,8.59,3.55c0.72,1.25,0.82,2.3,0.82,3.7l-0.19,11.52c-0.05,2.02,0.14,4.03,0.38,6.05H1022.22z M1021.36,98.2
		c-0.82-0.1-1.49-0.1-2.26-0.1c-1.3,0-2.4,0.1-3.6,0.29c-3.17,0.48-5.09,2.21-5.09,4.61c0,2.54,2.02,4.18,4.99,4.18
		c2.45,0,4.8-1.25,5.67-3.6c0.43-1.1,0.48-2.06,0.58-4.08l0.05-1.25L1021.36,98.2z"/>
	<path d="M1034.37,90.71c0-0.48-0.05-1.06-0.05-1.73c-0.05-1.54-0.05-1.92-0.19-3.17h4.56l0.1,4.66c0.82-3.12,3.55-4.9,7.54-4.9
		c0.43,0,0.72,0,1.34,0.05v4.42c-0.86-0.19-1.39-0.24-2.26-0.24c-4.46,0-6.48,2.26-6.48,7.3v12.82h-4.56V90.71z"/>
</g>
<rect x="495" y="134.5" class="st5" width="670" height="12"/>
<rect x="482.5" y="50.5" class="st6" width="695" height="84"/>
<rect x="482.5" y="1050.5" class="st6" width="695" height="84"/>
<g>
	<path d="M453.04,1019.96l-8.54-8.69c-2.16-2.21-4.42-4.37-7.06-6.05c-1.68-1.1-3.03-1.54-4.56-1.54c-3.41,0-5.42,2.02-5.42,5.33
		c0,3.79,2.21,5.33,5.81,5.42v5.04c-2.3-0.1-3.22-0.29-4.7-1.06c-3.17-1.58-4.99-4.95-4.99-9.22c0-6.38,3.7-10.27,9.7-10.27
		c3.89,0,6.77,2.45,9.55,4.85c1.78,1.54,3.65,3.31,5.28,5.04l5.52,5.81v-15.79h3.79v21.12H453.04z"/>
	<path d="M423.52,982.56c0-9.5,9.6-11.14,17.19-11.14c7.3,0,17.38,1.97,17.38,11.23c0,9.17-9.7,11.04-16.9,11.04
		C429.62,993.7,423.52,989.86,423.52,982.56z M454.1,982.61c0-4.37-4.37-6.53-13.25-6.53c-9.27,0-13.49,2.02-13.49,6.43
		c0,6.34,9.22,6.58,13.63,6.58S454.1,988.71,454.1,982.61z"/>
	<path d="M453.04,966.58l-8.54-8.69c-2.16-2.21-4.42-4.37-7.06-6.05c-1.68-1.1-3.03-1.54-4.56-1.54c-3.41,0-5.42,2.02-5.42,5.33
		c0,3.79,2.21,5.33,5.81,5.42v5.04c-2.3-0.1-3.22-0.29-4.7-1.06c-3.17-1.58-4.99-4.94-4.99-9.22c0-6.38,3.7-10.27,9.7-10.27
		c3.89,0,6.77,2.45,9.55,4.85c1.78,1.54,3.65,3.31,5.28,5.04l5.52,5.81v-15.79h3.79v21.12H453.04z"/>
	<path d="M423.52,929.19c0-9.51,9.6-11.14,17.19-11.14c7.3,0,17.38,1.97,17.38,11.23c0,9.17-9.7,11.04-16.9,11.04
		C429.62,940.32,423.52,936.48,423.52,929.19z M454.1,929.23c0-4.37-4.37-6.53-13.25-6.53c-9.27,0-13.49,2.02-13.49,6.43
		c0,6.34,9.22,6.58,13.63,6.58S454.1,935.33,454.1,929.23z"/>
</g>
<rect x="-17.75" y="551.25" transform="matrix(6.123234e-17 -1 1 6.123234e-17 -152.25 1034.25)" class="st6" width="917.5" height="84"/>
<g>
	<path d="M1220.52,226.83c-1.68,0.05-2.16,0.14-3.26,0.62c-2.35,0.96-3.6,3.65-3.6,7.78c0,3.89,1.63,8.06,6.14,8.06
		c4.42,0,5.04-4.61,5.86-7.97c1.34-5.52,1.58-6.19,2.26-7.83c1.39-3.31,4.18-5.18,7.68-5.18c6.05,0,10.08,5.28,10.08,13.2
		c0,4.03-1.1,8.64-4.85,10.75c-1.34,0.77-2.21,1.01-4.46,1.1v-4.99c3.5-0.19,5.28-2.64,5.28-7.3c0-4.8-2.11-7.68-5.62-7.68
		c-3.65,0-4.42,3.22-5.14,6.24c-0.05,0.29-0.43,1.68-1.06,4.13c-1.34,5.43-2.78,10.51-9.55,10.51c-6.53,0-10.71-5.38-10.71-13.68
		c0-4.56,1.3-9.89,5.86-11.9c1.54-0.67,2.54-0.86,5.09-0.86V226.83z"/>
	<path d="M1244.96,255.58v4.51h-34.66v-4.51L1244.96,255.58z"/>
	<path d="M1221.53,271.37h-0.77c-4.9,0-7.92,2.64-7.92,6.91c0,3.22,1.78,5.23,4.99,5.66v4.51c-1.68-0.19-2.35-0.38-3.41-0.91
		c-3.07-1.58-4.85-5.04-4.85-9.46c0-7.34,4.32-11.18,12.58-11.18c7.54,0,12.87,3.46,12.87,11.47c0,6.72-4.13,10.37-11.71,10.37
		c-0.43,0-1.06,0-1.78-0.05V271.37z M1225.13,284.09c4.22,0,6.67-2.16,6.67-5.95c0-3.94-2.74-6.48-7.11-6.58v12.53H1225.13z"/>
	<path d="M1221.53,298.06h-0.77c-4.9,0-7.92,2.64-7.92,6.91c0,3.22,1.78,5.23,4.99,5.67v4.51c-1.68-0.19-2.35-0.38-3.41-0.91
		c-3.07-1.58-4.85-5.04-4.85-9.46c0-7.34,4.32-11.19,12.58-11.19c7.54,0,12.87,3.46,12.87,11.47c0,6.72-4.13,10.37-11.71,10.37
		c-0.43,0-1.06,0-1.78-0.05V298.06z M1225.13,310.78c4.22,0,6.67-2.16,6.67-5.95c0-3.94-2.74-6.48-7.11-6.58v12.53H1225.13z"/>
	<path d="M1230.46,321.96c1.3,0,2.64-0.05,3.94-0.14v4.56l-3.89,0.1c2.79,1.63,4.37,4.61,4.37,8.21
		c0.05,6.24-4.75,10.13-12.48,10.13c-7.92,0-12.91-4.22-12.91-10.99c0-3.26,1.3-5.95,3.6-7.39h-12.05v-4.46H1230.46z
		 M1212.79,333.05c0,4.51,3.5,7.06,9.89,7.06c5.81,0,8.83-2.26,8.83-6.62c0-4.7-3.31-7.2-9.65-7.2
		C1217.21,326.28,1212.79,327.63,1212.79,333.05z"/>
</g>
<rect x="761.25" y="551.25" transform="matrix(6.123234e-17 -1 1 6.123234e-17 626.75 1813.25)" class="st6" width="917.5" height="84"/>
<rect x="494.5" y="1039.5" transform="matrix(-1 -1.224647e-16 1.224647e-16 -1 1659.5 2091)" class="st5" width="670.5" height="12"/>
<rect x="30.13" y="586.86" transform="matrix(-2.533603e-07 -1 1 -2.533603e-07 -104.355 1081.3556)" class="st5" width="916.75" height="12"/>
<rect x="713.13" y="586.86" transform="matrix(5.263359e-07 1 -1 5.263359e-07 1764.3551 -578.6449)" class="st5" width="916.75" height="12"/>
<g>
	<path class="st7" d="M715.5,1096.86H550.64c0,0,28.79,0.64,39.5,12.64"/>
	<path class="st7" d="M715.5,1096.5l-165.01,0.14c0,0,28.79-0.64,39.5-12.64"/>
</g>
<g>
	<path class="st7" d="M942.49,1102.64l164.86,0c0,0-28.79-0.64-39.5-12.64"/>
	<path class="st7" d="M942.49,1103l165.01-0.14c0,0-28.79,0.64-39.5,12.64"/>
</g>
<g>
	<path class="st7" d="M836.89,1119.5l0-57.11c0,0-0.64,28.79-12.64,39.5"/>
	<path class="st7" d="M837.25,1119.5l-0.14-57.25c0,0,0.64,28.79,12.64,39.5"/>
</g>
</svg>
